<?xml version="1.0" encoding="utf-8"?>
<!-- Generator: Adobe Illustrator 27.3.1, SVG Export Plug-In . SVG Version: 6.00 Build 0)  -->
<svg version="1.1" id="图层_1" xmlns="http://www.w3.org/2000/svg" xmlns:xlink="http://www.w3.org/1999/xlink" x="0px" y="0px"
	 viewBox="0 0 55 55" style="enable-background:new 0 0 55 55;" xml:space="preserve">
<style type="text/css">
	.st0{fill:none;stroke:#FFFFFF;stroke-width:1.5677;stroke-miterlimit:10;}
</style>
<path d="M27.5,0L27.5,0C42.7,0,55,12.3,55,27.5l0,0C55,42.7,42.7,55,27.5,55l0,0C12.3,55,0,42.7,0,27.5l0,0C0,12.3,12.3,0,27.5,0z"
	/>
<path class="st0" d="M8.4,32.7c5.3,0,9.5,4.3,9.5,9.5"/>
<path class="st0" d="M8.4,23.1c10.5,0,19.1,8.5,19.1,19.1"/>
<path class="st0" d="M8.4,13.6C24.2,13.6,37,26.4,37,42.2"/>
<path class="st0" d="M46.6,32.7c-5.3,0-9.5,4.3-9.5,9.5"/>
<path class="st0" d="M46.6,23.1c-10.5,0-19.1,8.5-19.1,19.1"/>
<path class="st0" d="M46.6,13.6C30.8,13.6,18,26.4,18,42.2"/>
</svg>
